<?xml version="1.0" encoding="UTF-8"?>
<svg width="128px" height="60px" viewBox="0 0 128 60" version="1.1" xmlns="http://www.w3.org/2000/svg" xmlns:xlink="http://www.w3.org/1999/xlink">
    <!-- Generator: Sketch 50 (54983) - http://www.bohemiancoding.com/sketch -->
    <title>URich-Logo</title>
    <desc>Created with Sketch.</desc>
    <defs>
        <linearGradient x1="50%" y1="0%" x2="50%" y2="100%" id="linearGradient-1">
            <stop stop-color="#82B147" offset="0%"></stop>
            <stop stop-color="#6DA24B" offset="13%"></stop>
            <stop stop-color="#529050" offset="34%"></stop>
            <stop stop-color="#3F8253" offset="55%"></stop>
            <stop stop-color="#347B55" offset="77%"></stop>
            <stop stop-color="#307856" offset="100%"></stop>
        </linearGradient>
    </defs>
    <g id="Symbols" stroke="none" stroke-width="1" fill="none" fill-rule="evenodd">
        <g id="Footer" transform="translate(-1386.000000, -181.000000)" fill-rule="nonzero">
            <g id="Logo-Urich-Full">
                <g transform="translate(1386.000000, 181.000000)">
                    <g id="URich-Logo">
                        <path d="M26.0343445,60.0481234 L0.00329048843,44.9447815 L0.108586118,14.9157841 L26.2482262,0 L52.2825707,15.0901799 L52.1739846,45.1191774 L26.0343445,60.0481234 Z M3.29706941,43.0593316 L26.0475064,56.2574807 L48.8900771,43.223856 L48.9855013,17.0019537 L26.2350643,3.79722365 L3.39907455,16.8308483 L3.29706941,43.0593316 Z" id="Shape" fill="url(#linearGradient-1)"></path>
                        <path d="M57.034036,41.9734704 L57.034036,20.6511054 L66.1486889,20.6511054 C69.1759383,20.6511054 71.5231534,21.418886 73.1903342,22.9544473 C75.8624872,25.5323806 76.4574913,29.5892267 74.6381491,32.8259126 C73.9240669,34.0442548 72.902954,35.054022 71.6767095,35.7544473 L76.1188689,41.9734704 L70.4921337,41.9734704 L67.2016452,37.0377378 C66.4777378,37.081611 65.4467181,37.1035476 64.1085861,37.1035476 L61.6407198,37.1035476 L61.6407198,41.9734704 L57.034036,41.9734704 Z M61.6407198,33.1549614 L66.3461183,33.1549614 C67.7281234,33.1549614 68.8249529,32.7491345 69.6366067,31.9374807 C71.2758127,30.2291971 71.2830572,27.534244 69.6530591,25.8171722 C68.8414053,25.0055184 67.7445758,24.5996915 66.3625707,24.5996915 L61.6407198,24.5996915 L61.6407198,33.1549614 Z" id="Shape" fill="#424242"></path>
                        <polygon id="Shape" fill="#424242" points="79.5607198 41.9734704 79.5607198 20.6511054 84.1674036 20.6511054 84.1674036 41.9734704"></polygon>
                        <path d="M87.7869409,31.3122879 C87.7297108,28.3805823 88.8914935,25.5565566 90.9951671,23.5138303 C93.1339846,21.3859811 95.8267009,20.3220566 99.0733162,20.3220566 C101.613658,20.270162 104.096359,21.0822607 106.114961,22.6253985 L103.449666,25.7513625 C102.272171,24.9060644 100.851461,24.4671459 99.402365,24.5009769 C97.3841988,24.5009769 95.7389546,25.1645587 94.4666324,26.4917224 C93.2193981,27.7826481 92.53843,29.5176364 92.5746015,31.3122879 C92.538504,33.1056068 93.2058208,34.8418117 94.4337275,36.1493059 C95.6194735,37.4643653 97.3195387,38.1972556 99.0897686,38.1565039 C100.839912,38.2137639 102.546093,37.6018921 103.860977,36.4454499 L106.657892,39.6043188 C104.595853,41.4250557 102.062177,42.3354242 99.0568638,42.3354242 C95.8102485,42.3354242 93.1175321,41.2714996 90.9787147,39.1436504 C88.8763215,37.0877521 87.7206062,34.2520795 87.7869409,31.3122879 Z" id="Shape" fill="#424242"></path>
                        <polygon id="Shape" fill="#424242" points="109.47126 41.9734704 109.47126 20.6511054 114.077943 20.6511054 114.077943 28.9760411 123.192596 28.9760411 123.192596 20.6511054 127.79928 20.6511054 127.79928 41.9734704 123.192596 41.9734704 123.192596 32.9246272 114.077943 32.9246272 114.077943 41.9734704"></polygon>
                        <path d="M42.4078149,39.8675578 C38.6795907,43.1035482 33.1386098,43.1035482 29.4103856,39.8675578 C27.6444901,38.2661868 26.7615424,36.1712425 26.7615424,33.5827249 L26.7615424,20.6511054 L31.3024165,20.6511054 L31.3024165,33.3852956 C31.2533456,34.6533436 31.7295312,35.8854738 32.6186118,36.7909512 C33.4858075,37.6664822 34.6773165,38.1430858 35.9091003,38.1071465 C37.1307033,38.1402667 38.3109646,37.6633934 39.1666838,36.7909512 C40.0517722,35.8829058 40.5272684,34.6525593 40.4828792,33.3852956 L40.4828792,20.6511054 L45.0566581,20.6511054 L45.0566581,33.5827249 C45.0566581,36.1493059 44.1737104,38.2442502 42.4078149,39.8675578 Z" id="Shape" fill="#424242"></path>
                    </g>
                </g>
            </g>
        </g>
    </g>
</svg>