<svg width="53" height="61" viewBox="0 0 53 61" fill="none" xmlns="http://www.w3.org/2000/svg">
<path d="M26.0343 60.0481L0.0032959 44.9448L0.108592 14.9158L26.2482 0L52.2826 15.0902L52.174 45.1192L26.0343 60.0481ZM3.29707 43.0593L26.0475 56.2575L48.8901 43.2239L48.9855 17.002L26.2351 3.79722L3.39908 16.8308L3.29707 43.0593Z" fill="url(#paint0_linear)"/>
<path d="M42.4079 39.8676C38.6796 43.1036 33.1387 43.1036 29.4104 39.8676C27.6445 38.2662 26.7616 36.1713 26.7616 33.5827V20.6511H31.3025V33.3853C31.2534 34.6534 31.7296 35.8855 32.6187 36.791C33.4859 37.6665 34.6774 38.1431 35.9092 38.1072C37.1308 38.1403 38.311 37.6634 39.1667 36.791C40.0518 35.8829 40.5273 34.6526 40.4829 33.3853V20.6511H45.0567V33.5827C45.0567 36.1493 44.1738 38.2443 42.4079 39.8676Z" fill="#424242"/>
<defs>
<linearGradient id="paint0_linear" x1="26.1429" y1="0" x2="26.1429" y2="60.0481" gradientUnits="userSpaceOnUse">
<stop stop-color="#82B147"/>
<stop offset="0.13" stop-color="#6DA24B"/>
<stop offset="0.34" stop-color="#529050"/>
<stop offset="0.55" stop-color="#3F8253"/>
<stop offset="0.77" stop-color="#347B55"/>
<stop offset="1" stop-color="#307856"/>
</linearGradient>
</defs>
</svg>
